<svg version="1.1" id="Layer_1" xmlns="http://www.w3.org/2000/svg" xmlns:xlink="http://www.w3.org/1999/xlink" x="0px" y="0px"
	 width="100%" viewBox="0 0 640 712" enable-background="new 0 0 640 712" xml:space="preserve">
<path fill="#000000" opacity="1.000000" stroke="none" 
	d="
M370.000000,713.000000 
	C246.666672,713.000000 123.833336,713.000000 1.000000,713.000000 
	C1.000000,475.666656 1.000000,238.333328 1.000000,1.000000 
	C214.333328,1.000000 427.666656,1.000000 641.000000,1.000000 
	C641.000000,238.333328 641.000000,475.666656 641.000000,713.000000 
	C550.833313,713.000000 460.666656,713.000000 370.000000,713.000000 
M474.867737,330.336304 
	C474.498199,330.371429 474.128662,330.406555 473.759125,330.441650 
	C473.965057,330.796387 474.171021,331.151123 474.723236,332.092773 
	C478.647186,336.288879 482.571167,340.484955 486.978699,345.064453 
	C487.243408,345.008636 487.508118,344.952820 487.772827,344.897003 
	C487.541840,344.572845 487.310852,344.248688 486.847168,343.282990 
	C482.919922,339.164795 478.992676,335.046631 474.867737,330.336304 
M488.238037,500.397491 
	C485.518433,490.969116 483.125580,481.431213 480.009705,472.135681 
	C473.932037,454.004456 465.634705,436.550751 462.547455,417.518463 
	C460.880859,407.244110 461.241211,397.105255 469.442413,388.838409 
	C470.767639,387.502533 471.065033,384.163574 470.513000,382.105865 
	C466.446564,366.947906 461.682800,352.103485 453.851715,338.268585 
	C443.284393,319.599579 429.556671,303.829376 412.401428,291.203522 
	C389.573364,274.402557 363.839355,263.621338 336.398621,256.996338 
	C323.517639,253.886475 310.472534,251.376358 297.409729,249.129654 
	C289.554413,247.778595 281.521820,247.458267 271.806091,246.501053 
	C292.492798,270.114624 299.328156,296.291626 294.810913,325.323517 
	C299.413422,326.626221 303.539551,327.588593 307.525543,328.958679 
	C322.908203,334.245941 335.881836,343.529266 347.681580,354.376587 
	C366.506500,371.682068 383.017914,391.123505 396.967834,412.511261 
	C412.747894,436.704926 427.736664,461.417694 442.887085,486.017090 
	C446.947174,492.609406 450.342407,499.611176 454.197876,506.710388 
	C445.961853,505.368866 438.440460,504.005676 430.877319,502.938416 
	C410.250336,500.027618 390.426422,502.246155 372.337189,513.326538 
	C356.620880,522.953308 346.383881,537.262512 343.386749,555.119019 
	C340.524170,572.173828 343.649384,588.932434 354.773010,603.555054 
	C355.902832,595.711914 356.544189,587.948242 358.194733,580.405396 
	C363.773956,554.908875 378.469238,537.116699 403.407684,528.304016 
	C425.613403,520.457031 448.451538,521.447449 471.449738,522.831909 
	C488.219482,523.841431 505.060791,523.863770 521.870422,523.871826 
	C526.281189,523.873962 529.869385,520.920166 531.956482,516.846558 
	C533.750977,513.343994 532.973083,509.755920 530.027588,507.577423 
	C526.766235,505.165344 522.801025,503.704895 518.464539,501.307648 
	C508.565674,501.183746 498.666809,501.059845 488.238037,500.397491 
M150.937119,261.597473 
	C157.686905,264.384613 164.294907,267.601929 171.211929,269.881592 
	C196.128403,278.093384 221.246964,285.700317 246.089645,294.124207 
	C258.773499,298.425201 271.033173,303.977295 283.490509,308.966309 
	C286.922577,301.931824 287.930481,294.010620 286.349152,286.752106 
	C283.489136,273.624756 275.205383,263.870972 266.076447,254.775513 
	C264.178772,252.884811 261.084595,251.641052 258.367828,251.218933 
	C243.908585,248.972260 229.320129,247.497375 214.921600,244.938400 
	C203.121033,242.841141 191.604065,239.340103 181.883652,231.785202 
	C171.771042,223.925491 169.171234,213.487274 175.202866,202.177078 
	C178.300797,196.368042 182.127838,190.684006 186.683197,185.964462 
	C201.604660,170.505310 217.052948,155.555939 232.221039,140.333191 
	C252.394302,120.087234 270.989655,98.628113 283.435577,72.540840 
	C291.055267,56.569630 295.748108,39.835449 296.819977,20.917898 
	C295.503937,22.780952 294.910675,23.720633 294.220490,24.582748 
	C285.297699,35.728523 277.156830,47.634533 267.263397,57.841225 
	C246.255203,79.514618 220.683609,95.324547 195.224976,111.184113 
	C168.276520,127.971748 141.131836,144.484299 114.756088,162.137787 
	C96.245987,174.526749 80.270607,189.978180 69.285759,209.805725 
	C63.479599,220.285782 59.833553,231.488785 58.885612,244.502808 
	C59.834641,243.397064 60.209164,243.112610 60.383858,242.735580 
	C78.148476,204.395187 107.685791,177.829102 144.512054,158.529007 
	C170.116806,145.109970 195.697693,131.645401 221.308014,118.237038 
	C221.723465,118.019508 222.378204,118.259003 223.764252,118.325920 
	C221.971497,120.000946 220.792038,121.109428 219.605652,122.210464 
	C205.563278,135.242676 191.211929,147.960617 177.557465,161.387299 
	C161.759613,176.921616 146.488083,193.031097 135.720779,212.698364 
	C123.608025,234.823257 128.017914,249.268082 150.937119,261.597473 
M510.977905,560.437805 
	C507.462830,559.146973 503.947754,557.856140 500.410187,556.557007 
	C503.340302,564.896362 506.639587,572.210510 508.453094,579.876099 
	C512.337952,596.296875 504.195801,609.129944 488.379791,611.869385 
	C473.016388,614.530334 458.532104,611.348328 445.410431,603.060852 
	C434.659485,596.270630 429.643677,586.130920 430.774109,573.391113 
	C431.252289,568.001953 432.615173,562.691345 433.668732,556.828674 
	C430.310516,559.492676 427.001404,561.753479 424.115692,564.464905 
	C402.322083,584.942749 406.090210,614.463806 432.252960,628.975891 
	C441.432587,634.067688 451.384766,636.594055 461.717163,637.538086 
	C480.471252,639.251587 498.653900,637.085632 515.369629,627.780518 
	C524.614014,622.634460 531.118591,615.036438 533.023682,604.246887 
	C535.905762,587.923950 527.378174,570.734985 510.977905,560.437805 
M129.969635,363.474121 
	C99.244354,391.926941 66.762123,418.263611 32.781139,443.373505 
	C40.576633,446.075043 55.934681,446.828827 62.163925,445.443359 
	C86.054634,440.129822 105.922752,427.231201 124.367210,411.991791 
	C135.821167,402.528137 146.433716,392.048859 157.515182,382.127350 
	C158.570312,381.182709 160.389420,380.309509 161.661484,380.527191 
	C166.641434,381.379456 171.559158,382.621887 176.472763,383.830139 
	C191.928787,387.630737 206.975769,386.125000 222.004883,381.207764 
	C227.338013,379.462860 228.503510,375.752350 229.982269,371.178802 
	C213.692459,373.785492 197.748032,374.104523 182.105164,371.549377 
	C167.006683,369.083130 152.226791,364.661957 137.312912,361.074677 
	C134.650635,360.434296 132.167145,360.213318 129.969635,363.474121 
M559.051392,292.501221 
	C552.098572,304.406464 545.391724,316.464844 538.106995,328.163452 
	C533.201904,336.040558 527.985840,343.836029 522.012024,350.910736 
	C511.692780,363.131683 499.210052,365.835510 484.262360,360.075745 
	C480.960754,358.803589 477.761200,357.266663 473.693634,355.493805 
	C477.656769,364.159180 481.512817,371.844971 484.678955,379.805176 
	C486.452545,384.264252 489.324127,387.256531 493.618408,388.364868 
	C498.020935,389.501221 502.776031,390.489044 507.214935,390.017578 
	C516.953186,388.983307 524.809204,383.333588 530.783203,376.165070 
	C540.116638,364.965485 548.686768,353.087311 556.991089,341.088867 
	C561.738586,334.229492 565.319946,326.563049 569.888062,318.438965 
	C573.133423,341.253052 568.872803,362.164276 562.945557,383.164062 
	C564.758667,381.469879 566.298584,379.549194 567.519226,377.443451 
	C577.913330,359.512421 580.209778,339.603424 582.057617,319.466125 
	C583.574951,302.930542 585.638855,286.419678 588.233032,270.020020 
	C589.385620,262.733551 592.440369,255.747940 594.875671,247.833099 
	C580.443787,261.142639 569.334473,276.026733 559.051392,292.501221 
M348.608063,421.934082 
	C336.613831,410.523651 324.619598,399.113220 311.689911,386.812897 
	C308.228363,392.216675 303.815125,397.843323 300.766205,404.131470 
	C294.622894,416.801636 302.951111,441.172791 322.769318,443.903320 
	C334.666260,445.542450 356.432648,441.172241 366.867859,434.290131 
	C360.990112,430.321960 355.087372,426.336914 348.608063,421.934082 
z"/>
<path fill="#66DA43" opacity="1.000000" stroke="none" 
	d="
M519.142334,501.830017 
	C522.801025,503.704895 526.766235,505.165344 530.027588,507.577423 
	C532.973083,509.755920 533.750977,513.343994 531.956482,516.846558 
	C529.869385,520.920166 526.281189,523.873962 521.870422,523.871826 
	C505.060791,523.863770 488.219482,523.841431 471.449738,522.831909 
	C448.451538,521.447449 425.613403,520.457031 403.407684,528.304016 
	C378.469238,537.116699 363.773956,554.908875 358.194733,580.405396 
	C356.544189,587.948242 355.902832,595.711914 354.773010,603.555054 
	C343.649384,588.932434 340.524170,572.173828 343.386749,555.119019 
	C346.383881,537.262512 356.620880,522.953308 372.337189,513.326538 
	C390.426422,502.246155 410.250336,500.027618 430.877319,502.938416 
	C438.440460,504.005676 445.961853,505.368866 454.197876,506.710388 
	C450.342407,499.611176 446.947174,492.609406 442.887085,486.017090 
	C427.736664,461.417694 412.747894,436.704926 396.967834,412.511261 
	C383.017914,391.123505 366.506500,371.682068 347.681580,354.376587 
	C335.881836,343.529266 322.908203,334.245941 307.525543,328.958679 
	C303.539551,327.588593 299.413422,326.626221 294.810913,325.323517 
	C299.328156,296.291626 292.492798,270.114624 271.806091,246.501053 
	C281.521820,247.458267 289.554413,247.778595 297.409729,249.129654 
	C310.472534,251.376358 323.517639,253.886475 336.398621,256.996338 
	C363.839355,263.621338 389.573364,274.402557 412.401428,291.203522 
	C429.556671,303.829376 443.284393,319.599579 453.851715,338.268585 
	C461.682800,352.103485 466.446564,366.947906 470.513000,382.105865 
	C471.065033,384.163574 470.767639,387.502533 469.442413,388.838409 
	C461.241211,397.105255 460.880859,407.244110 462.547455,417.518463 
	C465.634705,436.550751 473.932037,454.004456 480.009705,472.135681 
	C483.125580,481.431213 485.518433,490.969116 488.773621,501.030884 
	C499.253601,501.719543 509.197968,501.774780 519.142334,501.830017 
z"/>
<path fill="#FCFCFC" opacity="1.000000" stroke="none" 
	d="
M150.620453,261.403809 
	C128.017914,249.268082 123.608025,234.823257 135.720779,212.698364 
	C146.488083,193.031097 161.759613,176.921616 177.557465,161.387299 
	C191.211929,147.960617 205.563278,135.242676 219.605652,122.210464 
	C220.792038,121.109428 221.971497,120.000946 223.764252,118.325920 
	C222.378204,118.259003 221.723465,118.019508 221.308014,118.237038 
	C195.697693,131.645401 170.116806,145.109970 144.512054,158.529007 
	C107.685791,177.829102 78.148476,204.395187 60.383858,242.735580 
	C60.209164,243.112610 59.834641,243.397064 58.885612,244.502808 
	C59.833553,231.488785 63.479599,220.285782 69.285759,209.805725 
	C80.270607,189.978180 96.245987,174.526749 114.756088,162.137787 
	C141.131836,144.484299 168.276520,127.971748 195.224976,111.184113 
	C220.683609,95.324547 246.255203,79.514618 267.263397,57.841225 
	C277.156830,47.634533 285.297699,35.728523 294.220490,24.582748 
	C294.910675,23.720633 295.503937,22.780952 296.819977,20.917898 
	C295.748108,39.835449 291.055267,56.569630 283.435577,72.540840 
	C270.989655,98.628113 252.394302,120.087234 232.221039,140.333191 
	C217.052948,155.555939 201.604660,170.505310 186.683197,185.964462 
	C182.127838,190.684006 178.300797,196.368042 175.202866,202.177078 
	C169.171234,213.487274 171.771042,223.925491 181.883652,231.785202 
	C191.604065,239.340103 203.121033,242.841141 214.921600,244.938400 
	C229.320129,247.497375 243.908585,248.972260 258.367828,251.218933 
	C261.084595,251.641052 264.178772,252.884811 266.076447,254.775513 
	C275.205383,263.870972 283.489136,273.624756 286.349152,286.752106 
	C287.930481,294.010620 286.922577,301.931824 283.490509,308.966309 
	C271.033173,303.977295 258.773499,298.425201 246.089645,294.124207 
	C221.246964,285.700317 196.128403,278.093384 171.211929,269.881592 
	C164.294907,267.601929 157.686905,264.384613 150.620453,261.403809 
z"/>
<path fill="#FCFCFC" opacity="1.000000" stroke="none" 
	d="
M511.289307,560.641174 
	C527.378174,570.734985 535.905762,587.923950 533.023682,604.246887 
	C531.118591,615.036438 524.614014,622.634460 515.369629,627.780518 
	C498.653900,637.085632 480.471252,639.251587 461.717163,637.538086 
	C451.384766,636.594055 441.432587,634.067688 432.252960,628.975891 
	C406.090210,614.463806 402.322083,584.942749 424.115692,564.464905 
	C427.001404,561.753479 430.310516,559.492676 433.668732,556.828674 
	C432.615173,562.691345 431.252289,568.001953 430.774109,573.391113 
	C429.643677,586.130920 434.659485,596.270630 445.410431,603.060852 
	C458.532104,611.348328 473.016388,614.530334 488.379791,611.869385 
	C504.195801,609.129944 512.337952,596.296875 508.453094,579.876099 
	C506.639587,572.210510 503.340302,564.896362 500.410187,556.557007 
	C503.947754,557.856140 507.462830,559.146973 511.289307,560.641174 
z"/>
<path fill="#66DA43" opacity="1.000000" stroke="none" 
	d="
M130.224716,363.224121 
	C132.167145,360.213318 134.650635,360.434296 137.312912,361.074677 
	C152.226791,364.661957 167.006683,369.083130 182.105164,371.549377 
	C197.748032,374.104523 213.692459,373.785492 229.982269,371.178802 
	C228.503510,375.752350 227.338013,379.462860 222.004883,381.207764 
	C206.975769,386.125000 191.928787,387.630737 176.472763,383.830139 
	C171.559158,382.621887 166.641434,381.379456 161.661484,380.527191 
	C160.389420,380.309509 158.570312,381.182709 157.515182,382.127350 
	C146.433716,392.048859 135.821167,402.528137 124.367210,411.991791 
	C105.922752,427.231201 86.054634,440.129822 62.163925,445.443359 
	C55.934681,446.828827 40.576633,446.075043 32.781139,443.373505 
	C66.762123,418.263611 99.244354,391.926941 130.224716,363.224121 
z"/>
<path fill="#FBFBFB" opacity="1.000000" stroke="none" 
	d="
M559.237061,292.189636 
	C569.334473,276.026733 580.443787,261.142639 594.875671,247.833099 
	C592.440369,255.747940 589.385620,262.733551 588.233032,270.020020 
	C585.638855,286.419678 583.574951,302.930542 582.057617,319.466125 
	C580.209778,339.603424 577.913330,359.512421 567.519226,377.443451 
	C566.298584,379.549194 564.758667,381.469879 562.945557,383.164062 
	C568.872803,362.164276 573.133423,341.253052 569.888062,318.438965 
	C565.319946,326.563049 561.738586,334.229492 556.991089,341.088867 
	C548.686768,353.087311 540.116638,364.965485 530.783203,376.165070 
	C524.809204,383.333588 516.953186,388.983307 507.214935,390.017578 
	C502.776031,390.489044 498.020935,389.501221 493.618408,388.364868 
	C489.324127,387.256531 486.452545,384.264252 484.678955,379.805176 
	C481.512817,371.844971 477.656769,364.159180 473.693634,355.493805 
	C477.761200,357.266663 480.960754,358.803589 484.262360,360.075745 
	C499.210052,365.835510 511.692780,363.131683 522.012024,350.910736 
	C527.985840,343.836029 533.201904,336.040558 538.106995,328.163452 
	C545.391724,316.464844 552.098572,304.406464 559.237061,292.189636 
z"/>
<path fill="#FCFCFC" opacity="1.000000" stroke="none" 
	d="
M348.896362,422.142975 
	C355.087372,426.336914 360.990112,430.321960 366.867859,434.290131 
	C356.432648,441.172241 334.666260,445.542450 322.769318,443.903320 
	C302.951111,441.172791 294.622894,416.801636 300.766205,404.131470 
	C303.815125,397.843323 308.228363,392.216675 311.689911,386.812897 
	C324.619598,399.113220 336.613831,410.523651 348.896362,422.142975 
z"/>
<path fill="#CECECE" opacity="1.000000" stroke="none" 
	d="
M486.495117,344.681061 
	C482.571167,340.484955 478.647186,336.288879 474.727356,331.661072 
	C474.731445,331.229370 475.065430,330.928436 475.065430,330.928436 
	C478.992676,335.046631 482.919922,339.164795 486.808777,343.786285 
	C486.770355,344.289581 486.495117,344.681061 486.495117,344.681061 
z"/>
<path fill="#6A0900" opacity="1.000000" stroke="none" 
	d="
M518.803467,501.568848 
	C509.197968,501.774780 499.253601,501.719543 489.038574,501.300110 
	C498.666809,501.059845 508.565674,501.183746 518.803467,501.568848 
z"/>
<path fill="#CECECE" opacity="1.000000" stroke="none" 
	d="
M474.554199,331.367615 
	C474.171021,331.151123 473.965057,330.796387 473.759125,330.441650 
	C474.128662,330.406555 474.498199,330.371429 474.966583,330.632385 
	C475.065430,330.928436 474.731445,331.229370 474.554199,331.367615 
z"/>
<path fill="#CECECE" opacity="1.000000" stroke="none" 
	d="
M486.925110,344.107056 
	C487.310852,344.248688 487.541840,344.572845 487.772827,344.897003 
	C487.508118,344.952820 487.243408,345.008636 486.736908,344.872742 
	C486.495117,344.681061 486.770355,344.289581 486.925110,344.107056 
z"/>
</svg>